<svg width="154" height="247" viewBox="0 0 154 247" fill="none" xmlns="http://www.w3.org/2000/svg">
<path d="M86.7976 72.2009C85.7179 77.1942 84.031 85.1565 83.7611 87.1134C83.5587 88.8003 81.5343 100.406 79.8474 109.718C79.4425 112.957 77.6206 119.098 77.4857 121.662C77.8906 122.134 78.7003 123.011 78.9702 124.091C79.1726 124.901 79.8474 128.679 79.9824 129.489C80.2523 131.109 79.9149 131.176 79.51 131.244C79.1726 131.311 78.4304 129.422 77.5532 126.925C77.3507 126.115 76.0012 127.262 76.7434 129.354C77.2833 130.906 78.1605 132.661 78.1605 133.74C78.093 134.82 77.4182 136.035 76.8109 136.169C76.0012 136.304 74.3817 133.268 73.0322 130.569C71.3452 127.128 71.9525 125.71 72.3574 119.233C72.9647 108.976 72.4249 95.8855 72.8297 85.0216L76.0687 67.5449L86.7976 72.2009Z" fill="#F68F69"/>
<path d="M136.933 72.2009C138.013 77.1942 139.7 85.1565 139.97 87.1134C140.172 88.8003 142.197 100.406 143.816 109.718C144.221 112.957 146.043 119.098 146.245 121.662C145.773 122.134 145.031 123.011 144.761 124.091C144.558 124.901 143.884 128.679 143.749 129.489C143.546 131.109 143.816 131.176 144.221 131.244C144.558 131.311 145.301 129.422 146.178 126.925C146.38 126.115 147.73 127.262 146.987 129.354C146.448 130.906 145.57 132.661 145.57 133.74C145.638 134.82 146.313 136.035 146.92 136.169C147.73 136.304 149.349 133.268 150.699 130.569C152.386 127.128 151.778 125.71 151.374 119.233C150.699 108.976 151.306 95.8855 150.901 85.0216L147.595 67.5449L136.933 72.2009Z" fill="#F68F69"/>
<path fill-rule="evenodd" clip-rule="evenodd" d="M103.667 33.6715C107.783 31.7146 115.07 31.7146 120.401 33.604L121.278 35.0885L120.739 38.3949H103.937C103.937 36.9104 103.667 35.156 103.667 33.6715Z" fill="#3E3F43"/>
<path d="M110.617 133.943L113.991 134.01L116.218 159.517L125.26 246.9H136.596L130.118 241.974L136.798 159.517C137.136 148.181 137.136 126.79 136.731 116.264L111.629 108.909L87.8772 114.982L84.5708 160.394L82.479 241.502L75.1914 246.9H86.5276L110.617 133.943Z" fill="#3E3F43"/>
<path d="M138.08 117.276C131.4 118.963 92.7355 120.515 85.9203 118.76L88.0795 72.6731L83.0187 98.1121L81.1294 108.909L79.7123 111.068L78.4303 119.84L72.3573 119.57L72.6947 111.068L71.75 108.909L71.8175 85.4939L74.854 68.7595C74.854 68.7595 80.7245 46.087 82.074 44.4676C83.2886 42.9831 98.9434 36.7077 104.477 35.5605L104.409 35.8979C111.899 42.2408 119.119 35.763 119.659 35.763C125.867 37.5174 140.105 43.0505 141.184 44.4676C142.534 46.087 149.282 66.5327 149.282 66.5327L152.048 88.5303L153.533 109.044L151.778 113.497L152.183 119.705L145.57 120.177L144.221 112.013L142.129 109.313L135.314 72.6731L138.08 117.276Z" fill="#539ED7"/>
<path d="M119.794 25.8438V35.6955C119.794 35.0882 113.519 42.7131 104.477 35.8979L105.151 25.8438H119.794Z" fill="#F68F69"/>
<path d="M112.236 2.90142C120.806 3.17133 122.021 12.6856 121.886 20.7155C121.751 28.7453 118.242 34.076 112.776 34.4809C107.31 34.8857 103.397 29.4201 101.777 22.1325C100.09 14.71 98.471 2.49655 112.236 2.90142Z" fill="#F68F69"/>
<path d="M120.671 18.691C120.671 18.691 120.671 15.4521 123.37 16.2618C126.137 17.0715 123.64 24.6965 120.671 24.1567C117.635 23.6168 120.671 18.691 120.671 18.691Z" fill="#F68F69"/>
<path d="M103.262 20.9856C103.262 20.9856 102.857 17.7467 100.226 18.8938C97.6614 20.0409 101.035 27.3285 103.937 26.3838C106.838 25.4391 103.262 20.9856 103.262 20.9856Z" fill="#F68F69"/>
<path d="M112.169 34.8862C112.371 34.8862 112.574 34.8862 112.776 34.8862C115.206 34.6837 117.365 33.5366 118.984 31.5798C119.119 31.3773 119.119 31.1074 118.917 30.9725C118.714 30.8375 118.444 30.8375 118.309 31.04C116.825 32.8618 114.868 33.874 112.641 34.0764C110.347 34.2789 108.255 33.3342 106.433 31.3099C106.298 31.1074 106.029 31.1074 105.826 31.3099C105.624 31.5123 105.624 31.7147 105.826 31.9172C107.648 33.874 109.875 34.8862 112.169 34.8862Z" fill="#D47557"/>
<path d="M108.795 28.6104C111.022 29.7575 113.249 29.69 115.61 28.6104" stroke="#D47557" stroke-width="0.5669" stroke-miterlimit="10" stroke-linecap="round" stroke-linejoin="round"/>
<path d="M113.114 2.63162C113.789 2.02432 114.396 1.21459 114.801 0.202432C115.61 0.674775 116.285 1.34955 116.825 2.0918C117.365 1.4845 117.837 0.809729 118.175 0C124.45 3.84621 121.886 15.5873 121.886 16.4645C121.886 16.4645 120.941 18.0165 121.076 20.3107L119.862 20.7156L119.389 14.6426C117.23 5.73558 109.065 16.3295 105.017 10.594C105.017 10.594 103.127 11.6061 102.925 15.5873L103.195 20.6481H102.25C102.25 20.6481 101.98 19.1636 101.035 18.7587C99.5508 12.011 100.226 3.10396 110.55 2.6991C110.887 2.22676 111.157 1.75441 111.359 1.21459C112.102 1.61946 112.641 2.0918 113.114 2.63162Z" fill="#D47557"/>
<path fill-rule="evenodd" clip-rule="evenodd" d="M120.266 33.334C120.941 33.6714 121.211 34.0088 121.346 34.4136L121.953 36.7079C122.156 37.0452 122.156 37.3826 121.818 37.6525C119.187 39.9468 117.432 42.241 115.273 44.5352C114.463 42.5784 113.586 40.6215 112.776 38.6647C117.972 36.7753 121.548 34.9534 120.266 33.334Z" fill="white"/>
<path fill-rule="evenodd" clip-rule="evenodd" d="M104.072 33.1992C103.397 33.5366 103.127 33.874 103.06 34.2789L102.452 36.5731C102.25 36.9105 102.25 37.2479 102.587 37.5178C105.219 39.812 106.973 42.1062 109.133 44.4005C109.942 42.4436 110.82 40.4868 111.629 38.5299C106.366 36.708 102.857 34.8187 104.072 33.1992Z" fill="white"/>
<path d="M111.967 119.3V48.7188" stroke="#3E3F43" stroke-width="1.1339" stroke-miterlimit="10"/>
<path fill-rule="evenodd" clip-rule="evenodd" d="M111.697 41.1611H112.371C112.709 41.1611 112.979 41.3636 113.046 41.701L113.519 43.0505C113.586 43.2529 113.586 43.5228 113.384 43.7253C113.249 43.9277 113.046 44.0627 112.776 44.0627H111.224C110.954 44.0627 110.752 43.9277 110.617 43.7253C110.482 43.5228 110.415 43.2529 110.482 43.0505L110.954 41.701C111.157 41.3636 111.427 41.1611 111.697 41.1611ZM110.212 88.8002L111.899 90.6896L113.654 88.8002L115.475 83.1996L113.654 44.8049C113.654 44.67 113.519 44.6025 113.384 44.6025H110.819C110.685 44.6025 110.55 44.7374 110.55 44.8724L108.458 83.1996L110.212 88.8002Z" fill="white"/>
<path fill-rule="evenodd" clip-rule="evenodd" d="M116.285 21.3229C116.69 21.3229 117.027 20.9855 117.027 20.5806C117.027 20.1758 116.69 19.8384 116.285 19.8384C115.88 19.8384 115.543 20.1758 115.543 20.5806C115.543 20.9855 115.88 21.3229 116.285 21.3229Z" fill="#3E3F43"/>
<path fill-rule="evenodd" clip-rule="evenodd" d="M107.716 21.3229C108.121 21.3229 108.458 20.9855 108.458 20.5806C108.458 20.1758 108.121 19.8384 107.716 19.8384C107.311 19.8384 106.973 20.1758 106.973 20.5806C106.973 20.9855 107.311 21.3229 107.716 21.3229Z" fill="#3E3F43"/>
<path d="M30.5214 77.5316C40.8455 80.3657 54.8808 80.5006 65.0699 77.3292C66.1495 76.7219 68.3088 75.5748 69.1185 74.5626C81.062 59.3802 66.5544 -2.76654 43.0048 3.17147C24.5159 7.89489 5.4873 70.6489 30.5214 77.5316Z" fill="#3E3F43"/>
<path d="M24.1784 158.842L22.424 171.46C22.424 171.46 17.2282 189.072 16.6209 193.12C16.0811 196.359 15.2039 225.51 14.934 236.508C14.8665 239.073 20.3996 237.858 20.3996 237.858L20.737 236.508L45.5012 125.441L46.1085 236.508C46.1085 236.508 51.7766 239.208 52.4514 236.508C55.0156 225.375 60.5487 196.359 60.8861 193.12C61.291 189.072 60.4812 171.46 60.4812 171.46L63.3153 158.842L50.9669 116.264L24.1784 158.842Z" fill="#F68F69"/>
<path d="M14.9341 236.509C14.8666 239.073 14.7992 240.625 14.7992 240.625L6.0271 246.495H19.6575L20.3323 237.858L20.6697 236.509H14.9341Z" fill="#3E3F43"/>
<path d="M52.3841 236.509H46.0413L46.1087 246.563H58.727L51.372 240.895C51.372 240.895 51.7768 239.208 52.3841 236.509Z" fill="#3E3F43"/>
<path d="M28.2271 43.9277C23.7061 46.7618 0.898714 68.3546 0.0215067 70.9862C-0.8557 73.6178 25.393 103.713 25.393 103.713L28.7669 97.9097L12.9772 74.2926L31.6684 56.7485L28.2271 43.9277Z" fill="#F68F69"/>
<path d="M65.2722 45.0747C69.7932 47.8413 90.9136 68.3544 91.7908 70.986C92.6681 73.6177 68.1737 103.51 68.1737 103.51L65.2722 97.4372L78.8352 74.3599L60.7512 56.9507L65.2722 45.0747Z" fill="#F68F69"/>
<path d="M21.8843 171.528H53.6662L56.5677 145.886L58.592 171.528H60.3464C66.7568 142.917 73.5045 121.729 61.7635 92.3768C58.592 84.4144 58.727 77.6667 60.8862 68.3548C65.0024 64.4411 65.2723 58.2332 65.2723 55.4666C65.2723 52.7 65.2723 45.1426 65.2723 45.1426C65.2723 45.1426 49.8874 36.1006 45.7713 36.1006C41.5877 36.1006 27.6199 44.1304 27.6199 44.1304V55.1967C26.2703 63.2265 32.4108 68.5572 32.4108 68.5572C34.0302 77.3293 36.1895 84.8868 32.6807 92.1744C21.0071 116.399 24.4484 144.199 21.8843 171.528Z" fill="#539ED7"/>
<path d="M42.0598 28.4082V38.5298C42.0598 38.5298 47.1881 47.1669 51.9115 38.7323L51.5067 28.4082H42.0598Z" fill="#F68F69"/>
<path d="M44.0841 4.38608C35.3795 5.53319 33.9625 15.6548 36.0543 23.6172C37.6063 29.5552 41.1826 35.5607 46.7832 35.4257C52.3839 35.2908 55.7577 27.5983 56.7699 22.9424C58.3893 15.3849 58.1194 2.56419 44.0841 4.38608Z" fill="#F68F69"/>
<path d="M37.134 21.3904C37.134 21.3904 36.7966 18.0166 34.0975 19.1637C31.3984 20.2433 34.7048 27.8008 37.6738 26.9236C40.6428 26.0464 37.134 21.3904 37.134 21.3904Z" fill="#F68F69"/>
<path d="M55.0831 21.2558C55.0831 21.2558 55.1506 17.8819 57.9847 18.8266C60.7512 19.7712 57.9847 27.4637 54.9482 26.8564C51.8442 26.1816 55.0831 21.2558 55.0831 21.2558Z" fill="#F68F69"/>
<path d="M43.6118 28.1382C45.7711 29.2178 48.0653 29.1503 50.3596 28.1382" stroke="#D47557" stroke-width="0.5669" stroke-miterlimit="10" stroke-linecap="round" stroke-linejoin="round"/>
<path d="M46.851 35.8303C45.5014 35.8303 44.2193 35.4929 43.0722 34.8181C42.8698 34.6832 42.8023 34.4133 42.8698 34.2108C43.0047 34.0084 43.2747 33.9409 43.4771 34.0759C45.6364 35.3579 48.5379 35.223 50.5622 33.8734C50.7646 33.7385 51.0346 33.806 51.1695 34.0084C51.3045 34.2108 51.237 34.4807 51.0346 34.6157C49.82 35.4254 48.3355 35.8303 46.851 35.8303Z" fill="#D47557"/>
<path d="M51.1694 9.91935C51.3044 15.2501 50.2922 20.6483 47.5256 25.1693C44.7591 29.6902 40.0356 33.1316 34.7049 33.6714C32.8156 29.0829 31.466 24.0221 31.9384 19.1638C32.4107 14.3054 34.7724 9.37953 38.7536 6.41052C42.7347 3.37403 48.4703 2.63178 52.7889 5.06097C56.4327 7.08529 58.6594 10.999 59.6041 14.9802C60.5488 19.0288 60.4813 21.2556 60.3464 25.3717C54.2734 22.2002 50.3597 16.7346 51.1694 9.91935Z" fill="#3E3F43"/>
<path d="M65.8796 97.0326C65.8796 97.0326 64.9349 93.5912 64.53 93.6587C64.0577 93.6587 60.144 97.1 59.8741 97.5724C59.6042 98.0447 60.2115 99.1244 60.2115 99.1244L61.696 98.5845L62.0334 100.676L63.3829 100.879C63.3829 100.879 61.8309 101.689 61.8309 102.431C61.7635 103.173 62.5057 103.443 62.5057 103.443L64.7999 102.431L66.0145 105.467L68.6462 103.24L65.8796 97.0326Z" fill="#F68F69"/>
<path d="M28.4968 97.5724C28.4968 97.5724 29.8464 94.3335 30.3187 94.4009C30.7911 94.4684 34.2324 98.3821 34.4348 98.8545C34.6373 99.3943 33.9625 100.406 33.9625 100.406L32.6129 99.6642L32.0057 101.689H30.6561C30.6561 101.689 32.0731 102.701 32.0057 103.443C31.9382 104.185 31.1959 104.388 31.1959 104.388L29.1041 103.106L27.4847 106.007L25.1904 103.51L28.4968 97.5724Z" fill="#F68F69"/>
<path fill-rule="evenodd" clip-rule="evenodd" d="M51.8444 20.9181C52.2492 20.9181 52.5866 20.5807 52.5866 20.1758C52.5866 19.771 52.2492 19.4336 51.8444 19.4336C51.4395 19.4336 51.1021 19.771 51.1021 20.1758C51.0346 20.5807 51.372 20.9181 51.8444 20.9181Z" fill="#3E3F43"/>
<path fill-rule="evenodd" clip-rule="evenodd" d="M97.0541 55.7363L102.587 58.3005H95.907L97.0541 55.7363Z" fill="white"/>
<path d="M102.587 58.3003H95.4347L95.1648 59.8523" stroke="#3E3F43" stroke-width="1.1339" stroke-miterlimit="10" stroke-linecap="round" stroke-linejoin="round"/>
<path fill-rule="evenodd" clip-rule="evenodd" d="M146.718 117.613C147.055 117.613 147.257 117.343 147.257 117.074C147.257 116.736 146.987 116.534 146.718 116.534C146.448 116.534 146.178 116.804 146.178 117.074C146.178 117.411 146.38 117.613 146.718 117.613Z" fill="white"/>
<path fill-rule="evenodd" clip-rule="evenodd" d="M77.4181 117.343C77.7555 117.343 77.958 117.073 77.958 116.803C77.958 116.466 77.7555 116.264 77.4181 116.264C77.0808 116.264 76.8783 116.534 76.8783 116.803C76.8109 117.073 77.0808 117.343 77.4181 117.343Z" fill="white"/>
<path fill-rule="evenodd" clip-rule="evenodd" d="M97.189 60.5274C97.5264 60.5274 97.7288 60.2575 97.7288 59.9876C97.7288 59.6502 97.4589 59.4478 97.189 59.4478C96.9191 59.4478 96.6492 59.7177 96.6492 59.9876C96.6492 60.325 96.8516 60.5274 97.189 60.5274Z" fill="white"/>
</svg>
